HIERARCHY
ROOT Hips
{
     OFFSET 22.05200 98.00580 -43.46450
     CHANNELS 6 Xposition Yposition Zposition Zrotation Xrotation Yrotation
     JOINT Spine
     {
          OFFSET 0.00000 11.89050 0.00000
          CHANNELS 3 Zrotation Xrotation Yrotation
          JOINT Spine1
          {
               OFFSET 0.00000 25.65740 0.12766
               CHANNELS 3 Zrotation Xrotation Yrotation
               JOINT HEad
               {
                    OFFSET 0.00000 8.73416 0.01134
                    CHANNELS 3 Zrotation Xrotation Yrotation
                    End Site
                    {
                         OFFSET -0.29000 12.77420 2.51395
                    }
               }
               JOINT LeftShoulder1
               {
                    OFFSET 8.99000 -0.36225 -0.22000
                    CHANNELS 3 Zrotation Xrotation Yrotation
                    JOINT LeftArm
                    {
                         OFFSET 10.28270 -0.00338 0.32212
                         CHANNELS 3 Zrotation Xrotation Yrotation
                         JOINT LeftForeArm
                         {
                              OFFSET 32.76690 0.09914 -1.42434
                              CHANNELS 3 Zrotation Xrotation Yrotation
                              JOINT LeftHand
                              {
                                   OFFSET 27.56430 0.08536 1.02216
                                   CHANNELS 3 Zrotation Xrotation Yrotation
                                   End Site
                                   {
                                        OFFSET 16.74430 -0.60000 1.50291
                                   }
                              }
                         }
                    }
               }
               JOINT RightShoulder
               {
                    OFFSET -8.99000 -0.36225 -0.22000
                    CHANNELS 3 Zrotation Xrotation Yrotation
                    JOINT RightArm
                    {
                         OFFSET -10.28270 -0.00338 0.32212
                         CHANNELS 3 Zrotation Xrotation Yrotation
                         JOINT RightForeArm
                         {
                              OFFSET -32.89710 0.09914 -1.42434
                              CHANNELS 3 Zrotation Xrotation Yrotation
                              JOINT RightHand
                              {
                                   OFFSET -27.49210 0.08536 1.02216
                                   CHANNELS 3 Zrotation Xrotation Yrotation
                                   End Site
                                   {
                                        OFFSET -16.63120 -0.60000 1.50291
                                   }
                              }
                         }
                    }
               }
          }
     }
     JOINT LeftUpLeg
     {
          OFFSET 8.94580 -8.66707 0.10165
          CHANNELS 3 Zrotation Xrotation Yrotation
          JOINT LeftLeg
          {
               OFFSET 0.00000 -44.42270 1.37270
               CHANNELS 3 Zrotation Xrotation Yrotation
               JOINT LeftFoot
               {
                    OFFSET -0.25355 -42.09240 -1.46059
                    CHANNELS 3 Zrotation Xrotation Yrotation
                    JOINT LeftToes
                    {
                         OFFSET -0.04000 -4.41509 8.49910
                         CHANNELS 3 Zrotation Xrotation Yrotation
                         End Site
                         {
                              OFFSET 0.08000 -0.04745 9.77979
                         }
                    }
               }
          }
     }
     JOINT RightUpLeg
     {
          OFFSET -8.94580 -8.66707 0.10165
          CHANNELS 3 Zrotation Xrotation Yrotation
          JOINT RightLeg
          {
               OFFSET 0.00000 -44.42270 1.37270
               CHANNELS 3 Zrotation Xrotation Yrotation
               JOINT RightFoot
               {
                    OFFSET 0.25355 -42.09240 -1.46059
                    CHANNELS 3 Zrotation Xrotation Yrotation
                    JOINT RightToes
                    {
                         OFFSET 0.04000 -4.41509 8.49910
                         CHANNELS 3 Zrotation Xrotation Yrotation
                         End Site
                         {
                              OFFSET -0.08000 -0.13745 9.77979
                         }
                    }
               }
          }
     }
}
MOTION
Frames: 19
Frame Time: 0.01667
21.42670 89.97750 -54.81050 -7.28245 -5.82924 -22.09660 6.12126 6.04838 0.63174 1.11058 14.14500 2.43657 -7.12215 15.14560 1.21203 0.00000 0.00000 0.00000 -96.26290 -32.85330 -73.73250 2.19020 36.85510 -94.95610 37.62490 10.24900 5.38632 10.25350 1.21124 6.20879 4.68929 21.32110 47.63920 -2.11525 64.78190 28.66220 37.59250 8.38382 -8.74023 27.35180 -24.92680 14.32140 -2.67117 20.04550 -1.12117 -16.28530 8.79177 2.27486 3.12189 5.61826 -4.83964 -10.55090 2.55285 -3.96728 6.18710 50.89430 -2.74153 12.29890 -26.39610 1.80069 -8.49975 -12.62440 -24.68200 
21.08240 89.90350 -55.85280 -7.18230 -5.66194 -22.78190 6.24207 5.99130 0.31083 0.85453 14.09960 1.82861 -7.06090 15.13430 2.07084 0.00000 0.00000 0.00000 -95.70880 -33.50260 -73.17400 3.63786 36.79850 -95.88870 37.06530 10.56550 6.38431 10.04090 1.14291 5.80716 3.03833 20.09980 45.87020 1.33073 61.99860 25.90260 37.97620 8.14054 -9.39155 28.08240 -24.37230 13.45830 -3.07402 18.49180 -0.70862 -16.97820 8.42286 2.32358 2.03987 3.75517 -3.05310 -10.19790 1.76545 -4.15915 6.63921 51.06900 -4.12244 10.42030 -27.47870 1.57773 -8.40679 -12.72740 -24.15010 
20.76250 89.92180 -56.79990 -7.02763 -5.57266 -23.75630 6.23515 5.98930 0.07160 0.60123 14.09140 1.38871 -7.16128 15.14560 3.07147 0.00000 0.00000 0.00000 -95.37930 -34.51390 -72.51780 4.93709 37.05890 -97.13130 37.23900 10.87800 7.33770 9.73537 1.07069 5.40937 2.50760 18.16350 44.32620 1.33596 59.17880 27.04480 36.71340 8.10557 -9.67977 28.79930 -23.68980 12.25550 -3.75794 17.38020 -0.08090 -17.06450 7.53882 2.20991 0.29313 0.77946 -1.06655 -9.93283 1.00384 -4.12110 6.86010 51.13060 -5.23809 8.62896 -28.34710 1.31786 -8.17342 -12.51340 -23.59280 
20.47600 90.02880 -57.64980 -6.85346 -5.56866 -24.97420 6.10414 6.03024 -0.10796 0.40987 14.09180 1.06945 -7.50962 15.23570 4.27473 0.00000 0.00000 0.00000 -95.44650 -35.99120 -71.80030 5.83991 37.66930 -98.50460 37.77710 11.13430 8.06887 9.41468 1.00622 5.06254 2.82483 15.67540 43.06190 -1.09959 56.59220 31.21890 34.18330 8.42568 -9.06920 29.49200 -22.97880 10.97840 -4.68066 16.95460 0.83667 -16.50140 6.12816 1.93993 -1.71516 -2.60716 0.39293 -9.75211 0.25540 -3.98552 6.78112 51.16450 -5.93570 6.99321 -28.86670 1.03899 -7.94812 -12.28120 -23.08630 
20.22830 90.21190 -58.39850 -6.69261 -5.66064 -26.35050 5.86417 6.11181 -0.23758 0.29793 14.10960 0.85115 -8.09046 15.40090 5.58781 0.00000 0.00000 0.00000 -95.93140 -37.82810 -71.12910 6.27703 38.53440 -99.81600 38.28810 11.29650 8.49970 9.13986 0.95727 4.80319 3.73474 12.93530 42.07900 -5.02382 54.04720 37.45840 30.91330 9.01846 -7.47618 30.11760 -22.32660 9.80274 -5.80144 17.35020 2.24275 -15.38890 4.32875 1.57403 -3.55256 -5.44213 0.74996 -9.64833 -0.45255 -3.79741 6.44259 51.22230 -6.17791 5.66806 -29.04780 0.79017 -7.74506 -12.02290 -22.70150 
20.01950 90.45250 -59.04140 -6.57004 -5.85633 -27.76390 5.54571 6.23698 -0.32149 0.25137 14.17900 0.72306 -8.79931 15.61040 6.83911 0.00000 0.00000 0.00000 -96.66290 -39.73960 -70.58570 6.37590 39.44970 -100.93500 38.61650 11.36200 8.65517 8.96156 0.92328 4.61115 5.13315 10.16220 41.33270 -9.05431 50.93550 44.33330 27.27440 9.65231 -5.33140 30.61630 -21.77750 8.78865 -7.07888 18.49070 4.24192 -13.95450 2.47264 1.20787 -4.96337 -7.14916 -0.01148 -9.61096 -1.05643 -3.55646 5.94683 51.30730 -5.99221 4.84028 -29.00290 0.62632 -7.49806 -11.56410 -22.46340 
19.84350 90.72710 -59.57170 -6.49611 -6.14336 -29.08050 5.19588 6.39369 -0.37047 0.24611 14.30950 0.65745 -9.45685 15.81460 7.87663 0.00000 0.00000 0.00000 -97.38400 -41.45100 -70.16170 6.37336 40.19770 -101.84200 38.78990 11.35680 8.61837 8.93804 0.89913 4.42483 7.01860 7.46996 40.80910 -11.58100 46.83220 50.31610 23.42960 10.16390 -3.07174 30.93970 -21.33350 7.93124 -8.45494 20.10320 6.71659 -12.45540 1.03308 0.92647 -6.07066 -8.05594 -1.40764 -9.62497 -1.48407 -3.28156 5.40105 51.37490 -5.46738 4.51020 -28.85800 0.55663 -7.15887 -10.79460 -22.36260 
19.69240 91.01110 -59.98200 -6.46066 -6.48607 -30.20010 4.86510 6.55032 -0.40201 0.25774 14.46520 0.61474 -9.86392 15.93560 8.60680 0.00000 0.00000 0.00000 -97.92320 -42.85740 -69.80130 6.47428 40.68120 -102.61800 38.86960 11.32400 8.51210 9.11685 0.88028 4.19329 9.42980 4.92365 40.54540 -11.93090 41.99830 54.85540 19.52960 10.52330 -0.78059 31.06260 -20.98760 7.21144 -9.83310 21.87160 9.38127 -11.08890 0.35674 0.76060 -7.18709 -8.92341 -2.80596 -9.68104 -1.69367 -3.02509 4.86904 51.36490 -4.72955 4.50808 -28.71300 0.55099 -6.72481 -9.75055 -22.33260 
19.56040 91.28620 -60.26970 -6.44128 -6.83137 -31.10520 4.59221 6.67324 -0.42464 0.27056 14.59150 0.57882 -9.96722 15.93020 9.00556 0.00000 0.00000 0.00000 -98.15190 -43.95170 -69.41160 6.74671 40.84220 -103.34100 38.87760 11.31300 8.47882 9.50458 0.86450 3.90782 12.38810 2.54277 40.59580 -10.74950 37.18720 58.51630 15.87140 10.75650 1.63666 30.99850 -20.73560 6.62274 -11.09060 23.56790 11.92710 -9.96569 0.38707 0.68383 -8.35325 -10.04200 -3.76901 -9.76987 -1.70609 -2.80418 4.38718 51.23650 -3.91843 4.66766 -28.62580 0.57844 -6.22891 -8.55527 -22.30190 
19.44060 91.54840 -60.44460 -6.42285 -7.12508 -31.85520 4.39690 6.74912 -0.43641 0.29743 14.65890 0.55508 -9.93565 15.83540 9.14507 0.00000 0.00000 0.00000 -97.86910 -44.68980 -68.83530 7.12537 40.50840 -103.98400 38.80420 11.35780 8.61967 10.07030 0.85475 3.61786 15.83210 0.28848 41.00430 -9.12693 33.12180 62.06960 12.76740 10.87860 4.06705 30.80530 -20.55120 6.16137 -12.12500 25.03450 14.14240 -9.10539 0.74871 0.64947 -9.27386 -11.06130 -4.23558 -9.86212 -1.58956 -2.57076 3.98489 50.97050 -3.17354 4.87204 -28.56520 0.61523 -5.75945 -7.43442 -22.25100 
19.32810 91.80300 -60.52570 -6.40539 -7.34241 -32.52370 4.28419 6.78952 -0.44156 0.38424 14.68000 0.53248 -10.00360 15.69070 9.18822 0.00000 0.00000 0.00000 -97.74850 -45.39880 -68.42470 7.50467 40.19910 -104.61700 38.69080 11.43600 8.86490 10.73820 0.85971 3.42136 19.63470 -1.87867 41.80350 -7.73536 30.12750 65.83470 10.29450 10.89750 6.15263 30.54840 -20.37770 5.80135 -12.87610 26.13350 15.93780 -8.44511 1.06618 0.62215 -9.69015 -11.52830 -4.42788 -9.92492 -1.40464 -2.27996 3.66164 50.56530 -2.58095 5.03573 -28.42930 0.64094 -5.42956 -6.66288 -22.17990 
19.22680 92.05310 -60.52930 -6.39337 -7.49272 -33.15220 4.24972 6.81252 -0.45185 0.57412 14.68090 0.48395 -10.27200 15.45900 9.32382 0.00000 0.00000 0.00000 -97.83940 -46.12160 -68.15880 7.82148 39.90030 -105.18200 38.56990 11.52000 9.13032 11.38610 0.88698 3.40173 23.69330 -3.91734 43.01700 -6.70081 28.14150 69.69120 8.25891 10.82830 7.63379 30.26300 -20.16260 5.49817 -13.31840 26.76630 17.30130 -7.87930 1.13672 0.58327 -9.56264 -11.25530 -4.60208 -9.96163 -1.18158 -1.95201 3.38671 50.04570 -2.12165 5.12704 -28.15340 0.64673 -5.28351 -6.34738 -22.09140 
19.14970 92.29410 -60.46080 -6.39017 -7.58919 -33.75150 4.28131 6.82505 -0.46745 0.85928 14.67130 0.41069 -10.65920 15.08660 9.64966 0.00000 0.00000 0.00000 -98.09490 -46.85590 -67.99330 8.06604 39.60590 -105.65300 38.48460 11.58590 9.33811 11.93570 0.93624 3.56135 27.93700 -5.71297 44.63680 -5.85757 26.92430 73.34240 6.38011 10.69120 8.56021 29.96340 -19.88790 5.20777 -13.46000 26.89760 18.25740 -7.31837 0.93606 0.52850 -9.01854 -10.38250 -4.83577 -10.01080 -0.93952 -1.65634 3.13760 49.45680 -1.70398 5.17829 -27.75800 0.63961 -5.27707 -6.37800 -21.99250 
19.11040 92.51720 -60.31670 -6.40929 -7.63002 -34.31850 4.37241 6.82435 -0.47130 1.19039 14.64870 0.35578 -11.01410 14.60260 10.10330 0.00000 0.00000 0.00000 -98.45680 -47.56610 -67.94160 8.27462 39.35500 -106.04800 38.44380 11.63170 9.48079 12.40570 0.99948 3.82733 32.27620 -7.16889 46.60240 -4.94309 26.23240 76.51140 4.51561 10.51130 9.16529 29.67070 -19.55710 4.90347 -13.33710 26.54290 18.84640 -6.74844 0.57921 0.46682 -8.31352 -9.34529 -4.98455 -10.10020 -0.69155 -1.44504 2.92199 48.84070 -1.25504 5.27443 -27.31040 0.63797 -5.32627 -6.56151 -21.86020 
19.11470 92.71560 -60.09260 -6.47566 -7.61228 -34.84130 4.52353 6.81108 -0.44474 1.53211 14.61850 0.36434 -11.24320 14.09750 10.54200 0.00000 0.00000 0.00000 -98.92660 -48.19500 -68.06610 8.53727 39.19340 -106.42500 38.42590 11.67760 9.62020 12.82710 1.06579 4.11471 36.62270 -8.27576 48.82290 -3.76502 25.90690 79.05450 2.74038 10.31960 9.66160 29.41830 -19.17420 4.57058 -13.01580 25.75850 19.13210 -6.22211 0.21028 0.41113 -7.66582 -8.55489 -4.81513 -10.21740 -0.42696 -1.33925 2.72709 48.21880 -0.72706 5.51148 -26.88650 0.66127 -5.34163 -6.69504 -21.66030 
19.15850 92.89150 -59.78930 -6.59942 -7.54543 -35.30410 4.71459 6.79444 -0.37770 1.87028 14.59550 0.45477 -11.31550 13.64460 10.87120 0.00000 0.00000 0.00000 -99.49850 -48.66660 -68.38850 8.96319 39.11610 -106.84100 38.43800 11.74930 9.83247 13.19190 1.12619 4.37104 40.92770 -9.09272 51.21340 -2.36686 25.87780 81.02130 1.20536 10.14220 10.13750 29.22950 -18.74660 4.18559 -12.59330 24.63230 19.23890 -5.76141 -0.11012 0.36528 -7.08418 -8.03674 -4.27252 -10.32860 -0.11883 -1.34846 2.48228 47.59030 -0.05875 5.93718 -26.55980 0.71979 -5.23812 -6.55139 -21.42420 
19.23160 93.05530 -59.41060 -6.76002 -7.44028 -35.70620 4.90531 6.78234 -0.26538 2.18166 14.58740 0.63219 -11.22880 13.27590 11.06600 0.00000 0.00000 0.00000 -100.09700 -48.92180 -68.85970 9.58625 39.08930 -107.30400 38.52180 11.86440 10.16170 13.48980 1.17573 4.57387 45.16830 -9.67868 53.70290 -1.01371 26.11380 82.60430 -0.05525 9.98729 10.56520 29.10140 -18.28790 3.74800 -12.14860 23.26510 19.33070 -5.30949 -0.37226 0.32490 -6.53119 -7.61435 -3.59392 -10.40950 0.24022 -1.42349 2.14721 46.94490 0.74739 6.52825 -26.38730 0.81212 -4.95098 -5.91389 -21.25800 
19.32560 93.21910 -58.95790 -6.92788 -7.29422 -36.06220 5.07157 6.77262 -0.10915 2.44463 14.58520 0.89526 -11.02200 12.99040 11.13430 0.00000 0.00000 0.00000 -100.62600 -48.95510 -69.40550 10.32510 39.08990 -107.76000 38.68870 12.01740 10.58730 13.72020 1.21322 4.72118 49.32670 -10.06330 56.22240 0.02740 26.57820 83.98780 -1.14401 9.84598 10.89360 29.01790 -17.81790 3.31737 -11.70980 21.76650 19.52120 -4.79225 -0.56433 0.28507 -6.07277 -7.25423 -3.03330 -10.45230 0.62873 -1.45118 1.78218 46.27220 1.56630 7.19282 -26.36190 0.92396 -4.47001 -4.70848 -21.27060 
19.43950 93.39280 -58.42950 -7.09160 -7.09721 -36.37430 5.21650 6.75578 0.07301 2.66878 14.56880 1.21262 -10.77670 12.77470 11.12570 0.00000 0.00000 0.00000 -101.02700 -48.81710 -69.94630 11.05040 39.09270 -108.12600 38.88650 12.17480 11.01610 13.86940 1.24128 4.83734 53.36320 -10.24950 58.69880 0.71337 27.19930 85.22230 -2.17758 9.70694 11.12850 28.96460 -17.36300 2.96572 -11.28940 20.25680 19.84410 -4.20159 -0.75152 0.24269 -5.66026 -6.88563 -2.60684 -10.45730 1.02672 -1.36366 1.46970 45.56000 2.26405 7.81542 -26.37610 1.03106 -3.85902 -3.09270 -21.51300 
